<?xml version="1.0" encoding="UTF-8" standalone="no"?>
<svg
   xmlns:dc="http://purl.org/dc/elements/1.1/"
   xmlns:cc="http://creativecommons.org/ns#"
   xmlns:rdf="http://www.w3.org/1999/02/22-rdf-syntax-ns#"
   xmlns:svg="http://www.w3.org/2000/svg"
   xmlns="http://www.w3.org/2000/svg"
   viewBox="0 0 321.26666 87.879997"
   height="87.879997"
   width="321.26666"
   xml:space="preserve"
   id="svg2"
   version="1.1"><metadata
     id="metadata8"><rdf:RDF><cc:Work
         rdf:about=""><dc:format>image/svg+xml</dc:format><dc:type
           rdf:resource="http://purl.org/dc/dcmitype/StillImage" /></cc:Work></rdf:RDF></metadata><defs
     id="defs6"><clipPath
       id="clipPath42"
       clipPathUnits="userSpaceOnUse"><path
         id="path40"
         d="M 522.246,262.098 H 2409.5 V 552.426 H 522.246 Z" /></clipPath></defs><g
     transform="matrix(1.3333333,0,0,-1.3333333,0,87.88)"
     id="g10"><g
       transform="scale(0.1)"
       id="g12"><path
         id="path14"
         style="fill:#00a48c;fill-opacity:1;fill-rule:nonzero;stroke:none"
         d="m 0,266.602 c 92.9414,47.851 229.082,125.199 390.684,238.296 v 37.957 C 248.457,449.809 103.828,375.094 0,325.668 v -59.066" /><path
         id="path16"
         style="fill:#00a48c;fill-opacity:1;fill-rule:nonzero;stroke:none"
         d="m 0,379.957 c 103.477,42.156 248.113,107.293 390.684,192.09 v 18.738 C 256.688,524.313 117.473,482.711 0,456.773 v -76.816" /><path
         id="path18"
         style="fill:#00a48c;fill-opacity:1;fill-rule:nonzero;stroke:none"
         d="m 390.684,266.418 v 190.93 C 301.738,382.367 213.652,317.441 139.656,266.418 h 251.028" /><path
         id="path20"
         style="fill:#00a48c;fill-opacity:1;fill-rule:nonzero;stroke:none"
         d="m 89.6992,266.418 c 70.2618,41.707 155.5548,96.145 240.4888,159.77 19.812,14.851 40.046,30.144 60.496,45.957 v 23.66 C 264.973,401.559 136.66,322.992 36.4141,266.418 h 53.2851" /><path
         id="path22"
         style="fill:#00a48c;fill-opacity:1;fill-rule:nonzero;stroke:none"
         d="m 0,484.547 c 114.27,20.098 254.07,56.25 390.684,121.172 v 21.289 C 253.02,565.211 115.227,539 0,529.672 v -45.125" /><path
         id="path24"
         style="fill:#00a48c;fill-opacity:1;fill-rule:nonzero;stroke:none"
         d="M 0,659.078 V 549.703 c 8.53516,0.527 17.2344,1.133 26.1211,1.824 94.9999,7.305 224.6489,24.094 364.5629,84.59 v 22.961 H 0" /><path
         id="path26"
         style="fill:#ffffff;fill-opacity:1;fill-rule:nonzero;stroke:none"
         d="m 0,549.703 v -20.031 c 115.227,9.328 253.02,35.539 390.684,97.336 v 9.109 C 250.77,575.621 121.121,558.832 26.1211,551.527 17.2344,550.836 8.53516,550.23 0,549.703" /><path
         id="path28"
         style="fill:#ffffff;fill-opacity:1;fill-rule:nonzero;stroke:none"
         d="m 0,456.773 c 117.473,25.938 256.688,67.54 390.684,134.012 v 14.934 C 254.07,540.797 114.27,504.645 0,484.547 v -27.774" /><path
         id="path30"
         style="fill:#ffffff;fill-opacity:1;fill-rule:nonzero;stroke:none"
         d="m 0,325.668 c 103.828,49.426 248.457,124.141 390.684,217.187 v 29.192 C 248.113,487.25 103.477,422.113 0,379.957 v -54.289" /><path
         id="path32"
         style="fill:#ffffff;fill-opacity:1;fill-rule:nonzero;stroke:none"
         d="m 89.6992,266.418 h 49.9568 c 73.996,51.023 162.082,115.949 251.028,190.93 v 14.797 C 370.234,456.332 350,441.039 330.188,426.188 245.254,362.563 159.961,308.125 89.6992,266.418" /><path
         id="path34"
         style="fill:#ffffff;fill-opacity:1;fill-rule:nonzero;stroke:none"
         d="M 0,266.418 H 36.4141 C 136.66,322.992 264.973,401.559 390.684,495.805 v 9.093 C 229.082,391.801 92.9414,314.453 0,266.602 v -0.184" /><g
         id="g36"><g
           clip-path="url(#clipPath42)"
           id="g38"><path
             id="path44"
             style="fill:#231f20;fill-opacity:1;fill-rule:nonzero;stroke:none"
             d="m 522.246,266.602 h 52.512 v 114.8 h 88.512 v 41.258 h -88.512 v 64.492 h 93.015 v 41.25 H 522.246 Z m 181.524,0 h 50.253 v 70.914 c 0,27.734 0,78.769 40.872,78.769 9,0 18.003,-1.484 22.515,-4.133 v 50.625 c -5.254,1.504 -10.496,1.504 -15.379,1.504 -30,0 -50.636,-30.398 -52.883,-48.359 h -0.75 V 459.77 H 703.77 Z m 151.14,139.906 c 16.875,12.773 38.242,21.015 59.641,21.015 29.609,0 43.496,-10.496 43.496,-41.64 h -27.754 c -20.996,0 -45.75,-1.844 -64.883,-11.238 -19.133,-9.395 -32.988,-26.262 -32.988,-55.165 0,-36.726 33.371,-57.382 67.488,-57.382 22.883,0 48.02,12.004 59.633,33.379 h 0.762 c 0.386,-5.973 0.386,-18.7 2.246,-28.875 h 44.249 c -1.13,15.039 -1.87,28.543 -2.26,43.156 -0.37,14.25 -0.74,28.879 -0.74,48.39 v 24.758 c 0,57.012 -24.374,81.375 -83.253,81.375 -21.387,0 -47.625,-5.644 -67.141,-14.636 z m 25.488,-84.012 c 0,29.649 33.379,33.399 55.891,33.399 h 21.758 c 0,-15.02 -2.246,-28.868 -10.52,-39.782 -7.871,-10.461 -19.851,-17.265 -35.23,-17.265 -18,0 -31.899,7.168 -31.899,23.648 M 1223.23,459.77 h -50.29 v -94.52 c 0,-24.727 -7.87,-64.125 -44.25,-64.125 -32.25,0 -32.63,31.898 -32.63,55.531 V 459.77 h -50.25 V 337.875 c 0,-43.512 19.88,-75.777 65.64,-75.777 26.24,0 48,12.004 63.37,30.773 h 0.77 v -26.269 h 47.64 z M 1275,266.602 h 50.24 v 94.546 c 0,24.735 7.89,64.141 44.26,64.141 32.22,0 32.61,-31.894 32.61,-55.519 V 266.602 h 50.3 V 388.52 c 0,43.507 -19.91,75.761 -65.65,75.761 -26.27,0 -47.65,-8.64 -63.38,-30.761 h -0.8 v 26.25 H 1275 Z m 229.13,0 h 50.25 v 94.546 c 0,24.735 7.89,64.141 44.28,64.141 32.24,0 32.61,-31.894 32.61,-55.519 V 266.602 h 50.22 V 388.52 c 0,43.507 -19.86,75.761 -65.59,75.761 -26.25,0 -48.02,-12.011 -60.72,-30.761 h -0.8 v 114.386 h -50.25 z m 209.25,95.269 c 0,-55.465 37.17,-99.773 100.92,-99.773 64.12,0 101.25,44.308 101.25,99.773 0,63.777 -43.85,102.41 -101.25,102.41 -57.01,0 -100.92,-38.633 -100.92,-102.41 m 52.52,6.035 c 0,28.875 15.75,57.383 48.4,57.383 33.01,0 48.75,-27.766 48.75,-57.383 0,-32.277 -10.1,-66.781 -48.75,-66.781 -38.3,0 -48.4,34.895 -48.4,66.781 m 199.91,-101.304 h 50.23 v 156.429 h 43.89 v 36.739 h -43.89 v 24.015 c 0,14.988 5.27,29.637 22.19,29.637 10.84,0 17.22,-4.141 21.7,-6.777 l 4.14,41.64 c -9.75,2.246 -23.99,4.133 -36.74,4.133 -39.79,0 -61.52,-27.004 -61.52,-65.637 V 459.77 h -37.11 v -36.739 h 37.11 z m 160.5,115.543 c 2.29,25.878 16.51,45.378 44.63,45.378 28.17,0 39.42,-21.015 40.88,-45.378 z m 119.28,-63.786 c -18.77,-10.488 -39.75,-19.511 -64.16,-19.511 -31.07,0 -52.83,17.625 -55.12,48.804 h 133.5 c 0,67.508 -20.23,116.629 -91.88,116.629 -59.98,0 -89.6,-46.121 -89.6,-102.011 0,-63.422 37.1,-100.172 100.89,-100.172 27.02,0 47.97,5.254 66.37,15.39 z m 50.27,-51.757 h 50.24 v 70.914 c 0,27.734 0,78.769 40.86,78.769 9.02,0 18.03,-1.484 22.54,-4.133 v 50.625 c -5.32,1.504 -10.53,1.504 -15.41,1.504 -29.98,0 -50.61,-30.398 -52.85,-48.359 h -0.79 v 43.848 h -44.59 V 266.602" /></g></g><path
         id="path46"
         style="fill:#231f20;fill-opacity:1;fill-rule:nonzero;stroke:none"
         d="m 1866.65,133.23 h 40.6 l 30.1,-99.2769 h 0.37 l 30.1,99.2769 h 40.6 V 2.25781 h -24.29 V 110.332 h -0.36 L 1949.69,2.25781 h -24.31 l -34.09,108.07419 -0.35,-0.371 V 2.25781 h -24.29 V 133.23" /><path
         id="path48"
         style="fill:#231f20;fill-opacity:1;fill-rule:nonzero;stroke:none"
         d="m 2042.35,133.23 h 74.71 v -20.64 h -49.32 V 80.3125 h 45.14 V 59.6797 h -45.14 V 22.8906 h 49.67 V 2.25781 h -75.06 V 133.23" /><path
         id="path50"
         style="fill:#231f20;fill-opacity:1;fill-rule:nonzero;stroke:none"
         d="m 2135.73,133.23 h 27.2 l 32.45,-102.8316 h 0.37 l 32.11,102.8316 h 25.17 L 2210.43,2.25781 h -31.19 L 2135.73,133.23" /><path
         id="path52"
         style="fill:#231f20;fill-opacity:1;fill-rule:nonzero;stroke:none"
         d="m 2274.61,133.23 h 25.38 V 2.25781 h -25.38 V 133.23" /><path
         id="path54"
         style="fill:#231f20;fill-opacity:1;fill-rule:nonzero;stroke:none"
         d="m 2373.99,114.836 c -2.19,0 -4.36,-0.258 -6.52,-0.754 -2.31,-0.496 -4.5,-1.437 -6.55,-2.805 -1.93,-1.257 -3.55,-3.125 -4.88,-5.632 -1.33,-2.375 -1.99,-5.379 -1.99,-9.0044 0,-2.7539 0.84,-5.0586 2.52,-6.9453 1.7,-1.8828 3.83,-3.5703 6.35,-5.0664 2.79,-1.5039 5.82,-2.8711 9.06,-4.1289 3.16,-1.3672 6.48,-2.8164 9.98,-4.3203 3.51,-1.3672 6.89,-3.0039 10.15,-4.8711 3.38,-2.0039 6.35,-4.4453 8.89,-7.3164 2.54,-2.7539 4.65,-6.0703 6.35,-9.9492 1.44,-4.0157 2.19,-8.8282 2.19,-14.4532 -0.26,-14.1406 -4.91,-24.2695 -13.99,-30.39058 C 2386.49,3.06641 2375.32,0 2362.02,0 c -6.53,0 -12.03,0.496094 -16.51,1.50391 -4.59,0.86718 -9.9,2.05859 -15.95,3.55468 l 2.36,23.65231 c 8.94,-5.2539 18.5,-7.9492 28.65,-8.0742 5.2,0 10.22,1.3828 15.06,4.1367 4.82,2.7383 7.3,7.0039 7.42,12.7539 0,3.125 -0.72,5.8204 -2.17,8.0704 -1.7,2.2539 -3.82,4.1289 -6.34,5.625 -5.57,3.0039 -11.92,5.875 -19.05,8.6289 -3.51,1.5156 -6.83,3.2539 -9.98,5.2656 -3.26,1.875 -6.29,4.1211 -9.06,6.7461 -2.54,2.7539 -4.65,6.0742 -6.35,9.9414 -1.7,3.8789 -2.54,8.4609 -2.54,13.7031 0.26,14.5122 4.91,24.9022 13.97,31.1522 8.71,5.879 18.79,8.828 30.27,8.828 10.9,0 20.98,-1.582 30.29,-4.707 l -2.36,-21.562 c -8.1,3.625 -16.68,5.488 -25.74,5.617" /></g></g></svg>